<?xml version="1.0" ?><svg height="1270mm" id="svg2" version="1.1" viewBox="0 0 4500 4500" width="1270mm" xmlns="http://www.w3.org/2000/svg" xmlns:cc="http://creativecommons.org/ns#" xmlns:dc="http://purl.org/dc/elements/1.1/" xmlns:inkscape="http://www.inkscape.org/namespaces/inkscape" xmlns:rdf="http://www.w3.org/1999/02/22-rdf-syntax-ns#" xmlns:sodipodi="http://sodipodi.sourceforge.net/DTD/sodipodi-0.dtd" xmlns:svg="http://www.w3.org/2000/svg"><defs id="defs4"/><g id="layer1" transform="translate(5374.6106,7037.8337)"><g id="g5657" transform="translate(-21623.289,-12864.126)"><path d="m 24782.791,10477.428 a 75.0075,75.0075 0 0 0 -55.68,21.728 l -1772.586,1760.446 a 75.0075,75.0075 0 0 0 -16.877,25.587 l -254.96,643.473 a 75.0075,75.0075 0 0 0 93.847,98.643 l 643.473,-218.537 a 75.0075,75.0075 0 0 0 29.447,-18.522 l 1784.727,-1821.15 a 75.0075,75.0075 0 0 0 -3.118,-107.991 l -400.65,-364.228 a 75.0075,75.0075 0 0 0 -47.623,-19.449 z m -0.545,178.379 290.305,263.914 -93.442,95.349 a 75.0075,75.0075 0 0 0 -1.572,-1.502 l -288.885,-264.81 93.594,-92.951 z m -200.139,198.767 97.52,89.395 -1365.789,1374.115 c -39.989,-25.657 -85.028,-42.995 -132.258,-50.635 -6.481,-1.048 -12.982,-1.903 -19.492,-2.58 l 1420.019,-1410.295 z m 208.182,190.834 83.805,76.821 -1404.803,1433.47 c -0.12,-0.751 -0.226,-1.504 -0.352,-2.256 -7.681,-46.094 -24.602,-89.948 -49.341,-128.982 l 1370.691,-1379.053 z m 856.604,77.233 a 75.0075,75.0075 0 0 0 -52.133,22.16 l -2223.51,2240.679 a 75.0075,75.0075 0 0 0 -0.703,104.94 l 489.344,506.514 a 75.0075,75.0075 0 0 0 106.97,0.921 l 2240.684,-2240.679 a 75.0075,75.0075 0 0 0 0,-106.067 l -506.518,-506.513 a 75.0075,75.0075 0 0 0 -54.134,-21.955 z m 1.308,181.257 400.242,400.245 -141.066,141.066 -207.398,-199.422 a 75.0075,75.0075 0 0 0 -54.254,-21.664 75.0075,75.0075 0 0 0 -49.711,129.791 l 205.277,197.381 -143.047,143.047 -198.646,-191.006 a 75.0075,75.0075 0 0 0 -54.25,-21.664 75.0075,75.0075 0 0 0 -49.713,129.789 l 196.523,188.967 -140.521,140.521 -209.586,-201.525 a 75.0075,75.0075 0 0 0 -54.252,-21.666 75.0075,75.0075 0 0 0 -49.715,129.791 l 207.467,199.486 -145.067,145.067 -207.398,-199.42 a 75.0075,75.0075 0 0 0 -54.252,-21.666 75.0075,75.0075 0 0 0 -49.715,129.791 l 205.277,197.382 -153.986,153.987 -187.703,-180.483 a 75.0075,75.0075 0 0 0 -54.252,-21.666 75.0075,75.0075 0 0 0 -49.715,129.791 l 185.582,178.446 -136.058,136.058 -207.399,-199.42 a 75.0075,75.0075 0 0 0 -54.254,-21.664 75.0075,75.0075 0 0 0 -49.715,129.789 l 205.28,197.383 -147.508,147.508 -189.893,-182.588 a 75.0075,75.0075 0 0 0 -54.252,-21.666 75.0075,75.0075 0 0 0 -49.712,129.791 l 187.771,180.549 -144.73,144.73 -205.209,-197.318 a 75.0075,75.0075 0 0 0 -54.252,-21.664 75.0075,75.0075 0 0 0 -49.713,129.789 l 203.09,195.277 -133.016,133.016 -385.303,-398.82 2118.752,-2135.116 z m -2522.187,1109.18 c 10.637,-0.04 21.236,0.769 31.613,2.447 36.896,5.969 72.985,23.269 100.746,48.293 32.43,29.233 55.43,71.219 62.607,114.286 6.089,36.524 1.153,76.001 -13.416,110.437 l -150.503,51.115 c -0.501,-9.155 -1.648,-18.325 -3.473,-27.453 -9.207,-46.029 -34.5,-86.558 -71.807,-115.053 -26.84,-20.5 -58.211,-33.418 -91.418,-37.793 l 50.487,-127.418 a 75.0075,75.0075 0 0 0 5.943,-2.347 c 24.606,-10.779 52.037,-16.413 79.221,-16.514 z m -160.518,294.619 c 0.515,0 1.024,0.01 1.529,0.03 8.081,0.368 17.276,3.711 23.705,8.622 7.474,5.708 13.925,16.043 15.77,25.267 1.844,9.222 -0.135,21.241 -4.838,29.385 a 75.0075,75.0075 0 0 0 -9.185,24.547 l -110.582,37.554 43.929,-110.869 a 75.0075,75.0075 0 0 0 16.815,-8.07 c 6.418,-4.038 15.134,-6.483 22.857,-6.471 z" id="path4796" style="color:#000000;font-style:normal;font-variant:normal;font-weight:normal;font-stretch:normal;font-size:medium;line-height:normal;font-family:sans-serif;text-indent:0;text-align:start;text-decoration:none;text-decoration-line:none;text-decoration-style:solid;text-decoration-color:#000000;letter-spacing:normal;word-spacing:normal;text-transform:none;direction:ltr;block-progression:tb;writing-mode:lr-tb;baseline-shift:baseline;text-anchor:start;white-space:normal;clip-rule:nonzero;display:inline;overflow:visible;visibility:visible;opacity:1;isolation:auto;mix-blend-mode:normal;color-interpolation:sRGB;color-interpolation-filters:linearRGB;solid-color:#000000;solid-opacity:1;fill:#6c6da7;fill-opacity:1;fill-rule:evenodd;stroke:none;stroke-width:150;stroke-linecap:round;stroke-linejoin:round;stroke-miterlimit:4;stroke-dasharray:none;stroke-dashoffset:0;stroke-opacity:1;color-rendering:auto;image-rendering:auto;shape-rendering:auto;text-rendering:auto;enable-background:accumulate" transform="translate(-5954.7863,-4172.3044)"/><path d="m 24782.791,10477.428 a 75.0075,75.0075 0 0 0 -55.68,21.728 l -1772.586,1760.446 a 75.0075,75.0075 0 0 0 -16.877,25.587 l -254.96,643.473 a 75.0075,75.0075 0 0 0 93.847,98.643 l 643.473,-218.537 a 75.0075,75.0075 0 0 0 29.447,-18.522 l 1784.727,-1821.15 a 75.0075,75.0075 0 0 0 -3.118,-107.991 l -400.65,-364.228 a 75.0075,75.0075 0 0 0 -47.623,-19.449 z m -0.545,178.379 290.305,263.914 -93.442,95.349 a 75.0075,75.0075 0 0 0 -1.572,-1.502 l -288.885,-264.81 93.594,-92.951 z m -200.139,198.767 97.52,89.395 -1365.789,1374.115 c -39.989,-25.657 -85.028,-42.995 -132.258,-50.635 -6.481,-1.048 -12.982,-1.903 -19.492,-2.58 l 1420.019,-1410.295 z m 208.182,190.834 83.805,76.821 -1404.803,1433.47 c -0.12,-0.751 -0.226,-1.504 -0.352,-2.256 -7.681,-46.094 -24.602,-89.948 -49.341,-128.982 l 1370.691,-1379.053 z m 856.604,77.233 a 75.0075,75.0075 0 0 0 -52.133,22.16 l -2223.51,2240.679 a 75.0075,75.0075 0 0 0 -0.703,104.94 l 489.344,506.514 a 75.0075,75.0075 0 0 0 106.97,0.921 l 2240.684,-2240.679 a 75.0075,75.0075 0 0 0 0,-106.067 l -506.518,-506.513 a 75.0075,75.0075 0 0 0 -54.134,-21.955 z m 1.308,181.257 400.242,400.245 -141.066,141.066 -207.398,-199.422 a 75.0075,75.0075 0 0 0 -54.254,-21.664 75.0075,75.0075 0 0 0 -49.711,129.791 l 205.277,197.381 -143.047,143.047 -198.646,-191.006 a 75.0075,75.0075 0 0 0 -54.25,-21.664 75.0075,75.0075 0 0 0 -49.713,129.789 l 196.523,188.967 -140.521,140.521 -209.586,-201.525 a 75.0075,75.0075 0 0 0 -54.252,-21.666 75.0075,75.0075 0 0 0 -49.715,129.791 l 207.467,199.486 -145.067,145.067 -207.398,-199.42 a 75.0075,75.0075 0 0 0 -54.252,-21.666 75.0075,75.0075 0 0 0 -49.715,129.791 l 205.277,197.382 -153.986,153.987 -187.703,-180.483 a 75.0075,75.0075 0 0 0 -54.252,-21.666 75.0075,75.0075 0 0 0 -49.715,129.791 l 185.582,178.446 -136.058,136.058 -207.399,-199.42 a 75.0075,75.0075 0 0 0 -54.254,-21.664 75.0075,75.0075 0 0 0 -49.715,129.789 l 205.28,197.383 -147.508,147.508 -189.893,-182.588 a 75.0075,75.0075 0 0 0 -54.252,-21.666 75.0075,75.0075 0 0 0 -49.712,129.791 l 187.771,180.549 -144.73,144.73 -205.209,-197.318 a 75.0075,75.0075 0 0 0 -54.252,-21.664 75.0075,75.0075 0 0 0 -49.713,129.789 l 203.09,195.277 -133.016,133.016 -385.303,-398.82 2118.752,-2135.116 z m -2522.187,1109.18 c 10.637,-0.04 21.236,0.769 31.613,2.447 36.896,5.969 72.985,23.269 100.746,48.293 32.43,29.233 55.43,71.219 62.607,114.286 6.089,36.524 1.153,76.001 -13.416,110.437 l -150.503,51.115 c -0.501,-9.155 -1.648,-18.325 -3.473,-27.453 -9.207,-46.029 -34.5,-86.558 -71.807,-115.053 -26.84,-20.5 -58.211,-33.418 -91.418,-37.793 l 50.487,-127.418 a 75.0075,75.0075 0 0 0 5.943,-2.347 c 24.606,-10.779 52.037,-16.413 79.221,-16.514 z m -160.518,294.619 c 0.515,0 1.024,0.01 1.529,0.03 8.081,0.368 17.276,3.711 23.705,8.622 7.474,5.708 13.925,16.043 15.77,25.267 1.844,9.222 -0.135,21.241 -4.838,29.385 a 75.0075,75.0075 0 0 0 -9.185,24.547 l -110.582,37.554 43.929,-110.869 a 75.0075,75.0075 0 0 0 16.815,-8.07 c 6.418,-4.038 15.134,-6.483 22.857,-6.471 z" id="path5639" style="color:#000000;font-style:normal;font-variant:normal;font-weight:normal;font-stretch:normal;font-size:medium;line-height:normal;font-family:sans-serif;text-indent:0;text-align:start;text-decoration:none;text-decoration-line:none;text-decoration-style:solid;text-decoration-color:#000000;letter-spacing:normal;word-spacing:normal;text-transform:none;direction:ltr;block-progression:tb;writing-mode:lr-tb;baseline-shift:baseline;text-anchor:start;white-space:normal;clip-rule:nonzero;display:inline;overflow:visible;visibility:visible;opacity:1;isolation:auto;mix-blend-mode:normal;color-interpolation:sRGB;color-interpolation-filters:linearRGB;solid-color:#000000;solid-opacity:1;fill:#6c6da7;fill-opacity:1;fill-rule:evenodd;stroke:none;stroke-width:150;stroke-linecap:round;stroke-linejoin:round;stroke-miterlimit:4;stroke-dasharray:none;stroke-dashoffset:0;stroke-opacity:1;color-rendering:auto;image-rendering:auto;shape-rendering:auto;text-rendering:auto;enable-background:accumulate" transform="translate(-5954.7863,-4172.3044)"/><path d="m 24582.107,10854.574 -1420.019,1410.295 c 6.51,0.677 13.011,1.532 19.492,2.58 47.23,7.64 92.269,24.978 132.258,50.635 l 1365.789,-1374.115 -97.52,-89.395 z m 208.182,190.834 -1370.691,1379.053 c 24.739,39.034 41.66,82.888 49.341,128.982 0.126,0.752 0.232,1.505 0.352,2.256 l 1404.803,-1433.47 -83.805,-76.821 z m -1824.793,1662.289 c -7.723,-0.01 -16.439,2.433 -22.857,6.471 a 75.0075,75.0075 0 0 1 -16.815,8.07 l -43.929,110.869 110.582,-37.554 a 75.0075,75.0075 0 0 1 9.185,-24.547 c 4.703,-8.144 6.682,-20.163 4.838,-29.385 -1.845,-9.224 -8.296,-19.559 -15.77,-25.267 -6.429,-4.911 -15.624,-8.254 -23.705,-8.622 -0.505,-0.02 -1.014,-0.03 -1.529,-0.03 z" id="path5641" style="fill:#f2a2bb;fill-opacity:1;fill-rule:evenodd;stroke:none;stroke-width:1px;stroke-linecap:butt;stroke-linejoin:miter;stroke-opacity:1" transform="translate(-5954.7863,-4172.3044)"/></g></g></svg>