<?xml version="1.0" ?><svg id="Layer_1" style="enable-background:new 0 0 120 120;" version="1.1" viewBox="0 0 120 120" xml:space="preserve" xmlns="http://www.w3.org/2000/svg" xmlns:xlink="http://www.w3.org/1999/xlink"><style type="text/css">
	.st0{fill:#3876FF;}
	.st1{fill:#FFFFFF;}
	.st2{fill:#FFDA8F;}
	.st3{fill:#EAC2A4;}
	.st4{fill:#383838;}
	.st5{fill:#FF4B51;}
</style><g><path class="st0" d="M39.2,30v60c0,0.6,0.5,1,1,1h60c0.9,0,1.4-1.1,0.7-1.7l-60-60C40.3,28.6,39.2,29.1,39.2,30z M53.7,59.9   l16.7,16.7c0.6,0.6,0.2,1.7-0.7,1.7H52.9c-0.6,0-1-0.5-1-1V60.6C51.9,59.7,53,59.3,53.7,59.9z"/><g><path class="st1" d="M68,83.9c-0.6,0-1.2,0.5-1.2,1.2V91h2.3v-5.9C69.2,84.4,68.7,83.9,68,83.9z"/><path class="st1" d="M72.5,86.1c-0.6,0-1.2,0.5-1.2,1.2V91h2.3v-3.7C73.6,86.6,73.1,86.1,72.5,86.1z"/><path class="st1" d="M59.1,83.9c-0.6,0-1.2,0.5-1.2,1.2V91h2.3v-5.9C60.2,84.4,59.7,83.9,59.1,83.9z"/><path class="st1" d="M63.5,86.1c-0.6,0-1.2,0.5-1.2,1.2V91h2.3v-3.7C64.6,86.6,64.1,86.1,63.5,86.1z"/><path class="st1" d="M49.7,83.9c-0.6,0-1.2,0.5-1.2,1.2V91h2.3v-5.9C50.9,84.4,50.4,83.9,49.7,83.9z"/><path class="st1" d="M54.1,86.1c-0.6,0-1.2,0.5-1.2,1.2V91h2.3v-3.7C55.3,86.6,54.8,86.1,54.1,86.1z"/><path class="st1" d="M45.3,86.1c-0.6,0-1.2,0.5-1.2,1.2V91h2.3v-3.7C46.5,86.6,45.9,86.1,45.3,86.1z"/><path class="st1" d="M77.2,83.9c-0.6,0-1.2,0.5-1.2,1.2V91h2.3v-5.9C78.4,84.4,77.9,83.9,77.2,83.9z"/><path class="st1" d="M81.6,86.1c-0.6,0-1.2,0.5-1.2,1.2V91h2.3v-3.7C82.8,86.6,82.3,86.1,81.6,86.1z"/></g><path class="st2" d="M29.3,36.8l-8.3,0c-1.2,0-2.2,1-2.2,2.2l0,41.4l5.5,10c0.4,0.7,1.4,0.7,1.7,0l5.5-10l0-41.4   C31.5,37.9,30.6,36.9,29.3,36.8z"/><polygon class="st3" points="31.5,80.4 18.8,80.4 23.6,89.2 26.7,89.2  "/><path class="st4" d="M26.7,89.2l-3.1,0l0.7,1.3c0.4,0.7,1.4,0.7,1.7,0L26.7,89.2z"/><path class="st5" d="M27.2,29H23c-2.4,0-4.3,1.9-4.3,4.3v6.5h12.7v-6.5C31.5,30.9,29.6,29,27.2,29z"/></g></svg>