<svg version="1.1" id="style1-svg" width="400" height="400" xmlns="http://www.w3.org/2000/svg" xmlns:xlink="http://www.w3.org/1999/xlink" x="0px" y="0px" viewBox="0 0 279.1 346.6" style="enable-background:new 0 0 279.1 346.6;" xml:space="preserve"><style type="text/css">            .frame-color {                fill: #000000;            }            .background-color {                fill: #FFFFFF;            }            .text-color {                fill: #FFFFFF;            }        </style><rect class="background-color" x="10.6" y="10.5" width="258.1" height="258.1"></rect><path class="frame-color" d="M13.7,346.6h251.7c7.6,0,13.7-6.2,13.7-13.7V13.7c0-7.6-6.2-13.7-13.7-13.7H13.8C6.2,0,0.1,6.2,0,13.7v319.2C0,340.5,6.2,346.6,13.7,346.6z M10.6,17.9c0-4.1,3.3-7.4,7.4-7.4h243.2c4.1,0,7.4,3.3,7.4,7.4v243.3c0,4.1-3.3,7.4-7.4,7.4H18c-4.1,0-7.4-3.3-7.4-7.4V17.9z"></path><path class="text-color" d="M54.9,320.2c4.6-0.1,7-1.7,7-5c0-2.7-1.5-4.2-4.6-4.8c-1.4-0.2-3-0.4-4.7-0.7c-3.1-0.5-5.4-1.6-7-3.4s-2.5-4-2.5-6.6c0-3.1,1-5.6,3.1-7.5c2-1.9,4.8-2.8,8.5-2.9c4.4,0.1,8.3,1.3,11.5,3.7l-3,4.4c-2.7-1.8-5.6-2.7-8.8-2.7c-1.7,0-3,0.4-4.2,1.2c-1.2,0.9-1.8,2.1-1.8,3.9c0,1,0.4,2,1.2,2.8s2.1,1.4,3.8,1.8c1,0.2,2.3,0.4,4,0.6c3.3,0.5,5.8,1.7,7.4,3.6s2.4,4.1,2.4,6.6c-0.2,6.8-4.3,10.3-12.5,10.4c-5.3,0-9.8-1.6-13.6-4.9l3.5-4.1C47.6,319,51,320.2,54.9,320.2z M96.9,315.4c-0.8,3.3-2.3,5.8-4.5,7.6c-2.3,1.8-4.9,2.6-8,2.6c-2.8-0.1-5.1-0.7-7-2.1c-1.9-1.3-3.3-2.7-4.2-4.3c-0.3-0.5-0.5-1-0.7-1.5s-0.4-1.1-0.5-1.9c-0.2-1.4-0.4-4.2-0.4-8.3c0-4.1,0.1-6.9,0.4-8.3s0.7-2.5,1.2-3.4c0.9-1.6,2.2-3.1,4.2-4.4c1.9-1.3,4.2-2,7-2c3.4,0,6.2,1,8.4,3.1c2.2,2,3.5,4.5,4.1,7.5h-5.7c-0.4-1.4-1.2-2.7-2.4-3.7s-2.7-1.5-4.4-1.5c-1.3,0-2.4,0.3-3.3,0.8s-1.7,1.1-2.2,1.8c-0.7,0.8-1.2,1.8-1.4,3c-0.3,1.3-0.4,3.7-0.4,7.2s0.1,5.9,0.4,7.1c0.2,1.2,0.7,2.2,1.4,3c0.6,0.7,1.3,1.3,2.2,1.8s2,0.8,3.3,0.8c3,0,5.3-1.6,6.8-4.9L96.9,315.4L96.9,315.4z M119.1,317.4h-13.5l-2.7,8h-5.7l12.9-35.6h4.5l12.9,35.6h-5.7L119.1,317.4z M117.4,312.6l-5.2-15.6h-0.1l-5.2,15.6H117.4z M131.2,289.7h5.1l16.1,25.3h0.1v-25.3h5.4v35.6h-5.1l-16-25.3h-0.1v25.3h-5.4v-35.6H131.2z M177.4,289.7h5.1l10.2,23.2l10-23.2h5.1v35.6h-5.4v-22.2h-0.1l-7.4,17.1h-4.5l-7.4-17.1l0,0v22.2h-5.4v-35.6H177.4z M215.3,289.7H238v5.1h-17.3V305h14.8v4.8h-14.8v10.4H238v5.1h-22.7V289.7z"></path><g class="addsvg"><svg version="1.1" baseProfile="tiny" xmlns="http://www.w3.org/2000/svg" width="400" height="400" x="0" y="0" viewBox="0 0 400 400"><rect xmlns="http://www.w3.org/2000/svg" shape-rendering="optimizeSpeed" width="400" height="400" fill="#fff" x="0" y="0"></rect><rect shape-rendering="optimizeSpeed" fill="#000" x="10" y="10" width="18.195238095238096" height="18.195238095238096"></rect><rect shape-rendering="optimizeSpeed" fill="#000" x="28.095238095238095" y="10" width="18.195238095238096" height="18.195238095238096"></rect><rect shape-rendering="optimizeSpeed" fill="#000" x="46.19047619047619" y="10" width="18.195238095238096" height="18.195238095238096"></rect><rect shape-rendering="optimizeSpeed" fill="#000" x="64.28571428571428" y="10" width="18.195238095238096" height="18.195238095238096"></rect><rect shape-rendering="optimizeSpeed" fill="#000" x="82.38095238095238" y="10" width="18.195238095238096" height="18.195238095238096"></rect><rect shape-rendering="optimizeSpeed" fill="#000" x="100.47619047619048" y="10" width="18.195238095238096" height="18.195238095238096"></rect><rect shape-rendering="optimizeSpeed" fill="#000" x="118.57142857142857" y="10" width="18.195238095238096" height="18.195238095238096"></rect><rect shape-rendering="optimizeSpeed" fill="#000" x="154.76190476190476" y="10" width="18.195238095238096" height="18.195238095238096"></rect><rect shape-rendering="optimizeSpeed" fill="#000" x="209.04761904761904" y="10" width="18.195238095238096" height="18.195238095238096"></rect><rect shape-rendering="optimizeSpeed" fill="#000" x="227.14285714285714" y="10" width="18.195238095238096" height="18.195238095238096"></rect><rect shape-rendering="optimizeSpeed" fill="#000" x="263.3333333333333" y="10" width="18.195238095238096" height="18.195238095238096"></rect><rect shape-rendering="optimizeSpeed" fill="#000" x="281.42857142857144" y="10" width="18.195238095238096" height="18.195238095238096"></rect><rect shape-rendering="optimizeSpeed" fill="#000" x="299.5238095238095" y="10" width="18.195238095238096" height="18.195238095238096"></rect><rect shape-rendering="optimizeSpeed" fill="#000" x="317.6190476190476" y="10" width="18.195238095238096" height="18.195238095238096"></rect><rect shape-rendering="optimizeSpeed" fill="#000" x="335.7142857142857" y="10" width="18.195238095238096" height="18.195238095238096"></rect><rect shape-rendering="optimizeSpeed" fill="#000" x="353.8095238095238" y="10" width="18.195238095238096" height="18.195238095238096"></rect><rect shape-rendering="optimizeSpeed" fill="#000" x="371.9047619047619" y="10" width="18.195238095238096" height="18.195238095238096"></rect><rect shape-rendering="optimizeSpeed" fill="#000" x="10" y="28.095238095238095" width="18.195238095238096" height="18.195238095238096"></rect><rect shape-rendering="optimizeSpeed" fill="#000" x="118.57142857142857" y="28.095238095238095" width="18.195238095238096" height="18.195238095238096"></rect><rect shape-rendering="optimizeSpeed" fill="#000" x="154.76190476190476" y="28.095238095238095" width="18.195238095238096" height="18.195238095238096"></rect><rect shape-rendering="optimizeSpeed" fill="#000" x="172.85714285714286" y="28.095238095238095" width="18.195238095238096" height="18.195238095238096"></rect><rect shape-rendering="optimizeSpeed" fill="#000" x="209.04761904761904" y="28.095238095238095" width="18.195238095238096" height="18.195238095238096"></rect><rect shape-rendering="optimizeSpeed" fill="#000" x="227.14285714285714" y="28.095238095238095" width="18.195238095238096" height="18.195238095238096"></rect><rect shape-rendering="optimizeSpeed" fill="#000" x="263.3333333333333" y="28.095238095238095" width="18.195238095238096" height="18.195238095238096"></rect><rect shape-rendering="optimizeSpeed" fill="#000" x="371.9047619047619" y="28.095238095238095" width="18.195238095238096" height="18.195238095238096"></rect><rect shape-rendering="optimizeSpeed" fill="#000" x="10" y="46.19047619047619" width="18.195238095238096" height="18.195238095238096"></rect><rect shape-rendering="optimizeSpeed" fill="#000" x="46.19047619047619" y="46.19047619047619" width="18.195238095238096" height="18.195238095238096"></rect><rect shape-rendering="optimizeSpeed" fill="#000" x="64.28571428571428" y="46.19047619047619" width="18.195238095238096" height="18.195238095238096"></rect><rect shape-rendering="optimizeSpeed" fill="#000" x="82.38095238095238" y="46.19047619047619" width="18.195238095238096" height="18.195238095238096"></rect><rect shape-rendering="optimizeSpeed" fill="#000" x="118.57142857142857" y="46.19047619047619" width="18.195238095238096" height="18.195238095238096"></rect><rect shape-rendering="optimizeSpeed" fill="#000" x="154.76190476190476" y="46.19047619047619" width="18.195238095238096" height="18.195238095238096"></rect><rect shape-rendering="optimizeSpeed" fill="#000" x="172.85714285714286" y="46.19047619047619" width="18.195238095238096" height="18.195238095238096"></rect><rect shape-rendering="optimizeSpeed" fill="#000" x="190.95238095238096" y="46.19047619047619" width="18.195238095238096" height="18.195238095238096"></rect><rect shape-rendering="optimizeSpeed" fill="#000" x="209.04761904761904" y="46.19047619047619" width="18.195238095238096" height="18.195238095238096"></rect><rect shape-rendering="optimizeSpeed" fill="#000" x="263.3333333333333" y="46.19047619047619" width="18.195238095238096" height="18.195238095238096"></rect><rect shape-rendering="optimizeSpeed" fill="#000" x="299.5238095238095" y="46.19047619047619" width="18.195238095238096" height="18.195238095238096"></rect><rect shape-rendering="optimizeSpeed" fill="#000" x="317.6190476190476" y="46.19047619047619" width="18.195238095238096" height="18.195238095238096"></rect><rect shape-rendering="optimizeSpeed" fill="#000" x="335.7142857142857" y="46.19047619047619" width="18.195238095238096" height="18.195238095238096"></rect><rect shape-rendering="optimizeSpeed" fill="#000" x="371.9047619047619" y="46.19047619047619" width="18.195238095238096" height="18.195238095238096"></rect><rect shape-rendering="optimizeSpeed" fill="#000" x="10" y="64.28571428571428" width="18.195238095238096" height="18.195238095238096"></rect><rect shape-rendering="optimizeSpeed" fill="#000" x="46.19047619047619" y="64.28571428571428" width="18.195238095238096" height="18.195238095238096"></rect><rect shape-rendering="optimizeSpeed" fill="#000" x="64.28571428571428" y="64.28571428571428" width="18.195238095238096" height="18.195238095238096"></rect><rect shape-rendering="optimizeSpeed" fill="#000" x="82.38095238095238" y="64.28571428571428" width="18.195238095238096" height="18.195238095238096"></rect><rect shape-rendering="optimizeSpeed" fill="#000" x="118.57142857142857" y="64.28571428571428" width="18.195238095238096" height="18.195238095238096"></rect><rect shape-rendering="optimizeSpeed" fill="#000" x="154.76190476190476" y="64.28571428571428" width="18.195238095238096" height="18.195238095238096"></rect><rect shape-rendering="optimizeSpeed" fill="#000" x="227.14285714285714" y="64.28571428571428" width="18.195238095238096" height="18.195238095238096"></rect><rect shape-rendering="optimizeSpeed" fill="#000" x="263.3333333333333" y="64.28571428571428" width="18.195238095238096" height="18.195238095238096"></rect><rect shape-rendering="optimizeSpeed" fill="#000" x="299.5238095238095" y="64.28571428571428" width="18.195238095238096" height="18.195238095238096"></rect><rect shape-rendering="optimizeSpeed" fill="#000" x="317.6190476190476" y="64.28571428571428" width="18.195238095238096" height="18.195238095238096"></rect><rect shape-rendering="optimizeSpeed" fill="#000" x="335.7142857142857" y="64.28571428571428" width="18.195238095238096" height="18.195238095238096"></rect><rect shape-rendering="optimizeSpeed" fill="#000" x="371.9047619047619" y="64.28571428571428" width="18.195238095238096" height="18.195238095238096"></rect><rect shape-rendering="optimizeSpeed" fill="#000" x="10" y="82.38095238095238" width="18.195238095238096" height="18.195238095238096"></rect><rect shape-rendering="optimizeSpeed" fill="#000" x="46.19047619047619" y="82.38095238095238" width="18.195238095238096" height="18.195238095238096"></rect><rect shape-rendering="optimizeSpeed" fill="#000" x="64.28571428571428" y="82.38095238095238" width="18.195238095238096" height="18.195238095238096"></rect><rect shape-rendering="optimizeSpeed" fill="#000" x="82.38095238095238" y="82.38095238095238" width="18.195238095238096" height="18.195238095238096"></rect><rect shape-rendering="optimizeSpeed" fill="#000" x="118.57142857142857" y="82.38095238095238" width="18.195238095238096" height="18.195238095238096"></rect><rect shape-rendering="optimizeSpeed" fill="#000" x="227.14285714285714" y="82.38095238095238" width="18.195238095238096" height="18.195238095238096"></rect><rect shape-rendering="optimizeSpeed" fill="#000" x="263.3333333333333" y="82.38095238095238" width="18.195238095238096" height="18.195238095238096"></rect><rect shape-rendering="optimizeSpeed" fill="#000" x="299.5238095238095" y="82.38095238095238" width="18.195238095238096" height="18.195238095238096"></rect><rect shape-rendering="optimizeSpeed" fill="#000" x="317.6190476190476" y="82.38095238095238" width="18.195238095238096" height="18.195238095238096"></rect><rect shape-rendering="optimizeSpeed" fill="#000" x="335.7142857142857" y="82.38095238095238" width="18.195238095238096" height="18.195238095238096"></rect><rect shape-rendering="optimizeSpeed" fill="#000" x="371.9047619047619" y="82.38095238095238" width="18.195238095238096" height="18.195238095238096"></rect><rect shape-rendering="optimizeSpeed" fill="#000" x="10" y="100.47619047619048" width="18.195238095238096" height="18.195238095238096"></rect><rect shape-rendering="optimizeSpeed" fill="#000" x="118.57142857142857" y="100.47619047619048" width="18.195238095238096" height="18.195238095238096"></rect><rect shape-rendering="optimizeSpeed" fill="#000" x="154.76190476190476" y="100.47619047619048" width="18.195238095238096" height="18.195238095238096"></rect><rect shape-rendering="optimizeSpeed" fill="#000" x="172.85714285714286" y="100.47619047619048" width="18.195238095238096" height="18.195238095238096"></rect><rect shape-rendering="optimizeSpeed" fill="#000" x="190.95238095238096" y="100.47619047619048" width="18.195238095238096" height="18.195238095238096"></rect><rect shape-rendering="optimizeSpeed" fill="#000" x="209.04761904761904" y="100.47619047619048" width="18.195238095238096" height="18.195238095238096"></rect><rect shape-rendering="optimizeSpeed" fill="#000" x="227.14285714285714" y="100.47619047619048" width="18.195238095238096" height="18.195238095238096"></rect><rect shape-rendering="optimizeSpeed" fill="#000" x="263.3333333333333" y="100.47619047619048" width="18.195238095238096" height="18.195238095238096"></rect><rect shape-rendering="optimizeSpeed" fill="#000" x="371.9047619047619" y="100.47619047619048" width="18.195238095238096" height="18.195238095238096"></rect><rect shape-rendering="optimizeSpeed" fill="#000" x="10" y="118.57142857142857" width="18.195238095238096" height="18.195238095238096"></rect><rect shape-rendering="optimizeSpeed" fill="#000" x="28.095238095238095" y="118.57142857142857" width="18.195238095238096" height="18.195238095238096"></rect><rect shape-rendering="optimizeSpeed" fill="#000" x="46.19047619047619" y="118.57142857142857" width="18.195238095238096" height="18.195238095238096"></rect><rect shape-rendering="optimizeSpeed" fill="#000" x="64.28571428571428" y="118.57142857142857" width="18.195238095238096" height="18.195238095238096"></rect><rect shape-rendering="optimizeSpeed" fill="#000" x="82.38095238095238" y="118.57142857142857" width="18.195238095238096" height="18.195238095238096"></rect><rect shape-rendering="optimizeSpeed" fill="#000" x="100.47619047619048" y="118.57142857142857" width="18.195238095238096" height="18.195238095238096"></rect><rect shape-rendering="optimizeSpeed" fill="#000" x="118.57142857142857" y="118.57142857142857" width="18.195238095238096" height="18.195238095238096"></rect><rect shape-rendering="optimizeSpeed" fill="#000" x="154.76190476190476" y="118.57142857142857" width="18.195238095238096" height="18.195238095238096"></rect><rect shape-rendering="optimizeSpeed" fill="#000" x="190.95238095238096" y="118.57142857142857" width="18.195238095238096" height="18.195238095238096"></rect><rect shape-rendering="optimizeSpeed" fill="#000" x="227.14285714285714" y="118.57142857142857" width="18.195238095238096" height="18.195238095238096"></rect><rect shape-rendering="optimizeSpeed" fill="#000" x="263.3333333333333" y="118.57142857142857" width="18.195238095238096" height="18.195238095238096"></rect><rect shape-rendering="optimizeSpeed" fill="#000" x="281.42857142857144" y="118.57142857142857" width="18.195238095238096" height="18.195238095238096"></rect><rect shape-rendering="optimizeSpeed" fill="#000" x="299.5238095238095" y="118.57142857142857" width="18.195238095238096" height="18.195238095238096"></rect><rect shape-rendering="optimizeSpeed" fill="#000" x="317.6190476190476" y="118.57142857142857" width="18.195238095238096" height="18.195238095238096"></rect><rect shape-rendering="optimizeSpeed" fill="#000" x="335.7142857142857" y="118.57142857142857" width="18.195238095238096" height="18.195238095238096"></rect><rect shape-rendering="optimizeSpeed" fill="#000" x="353.8095238095238" y="118.57142857142857" width="18.195238095238096" height="18.195238095238096"></rect><rect shape-rendering="optimizeSpeed" fill="#000" x="371.9047619047619" y="118.57142857142857" width="18.195238095238096" height="18.195238095238096"></rect><rect shape-rendering="optimizeSpeed" fill="#000" x="172.85714285714286" y="136.66666666666666" width="18.195238095238096" height="18.195238095238096"></rect><rect shape-rendering="optimizeSpeed" fill="#000" x="190.95238095238096" y="136.66666666666666" width="18.195238095238096" height="18.195238095238096"></rect><rect shape-rendering="optimizeSpeed" fill="#000" x="227.14285714285714" y="136.66666666666666" width="18.195238095238096" height="18.195238095238096"></rect><rect shape-rendering="optimizeSpeed" fill="#000" x="10" y="154.76190476190476" width="18.195238095238096" height="18.195238095238096"></rect><rect shape-rendering="optimizeSpeed" fill="#000" x="28.095238095238095" y="154.76190476190476" width="18.195238095238096" height="18.195238095238096"></rect><rect shape-rendering="optimizeSpeed" fill="#000" x="82.38095238095238" y="154.76190476190476" width="18.195238095238096" height="18.195238095238096"></rect><rect shape-rendering="optimizeSpeed" fill="#000" x="100.47619047619048" y="154.76190476190476" width="18.195238095238096" height="18.195238095238096"></rect><rect shape-rendering="optimizeSpeed" fill="#000" x="118.57142857142857" y="154.76190476190476" width="18.195238095238096" height="18.195238095238096"></rect><rect shape-rendering="optimizeSpeed" fill="#000" x="209.04761904761904" y="154.76190476190476" width="18.195238095238096" height="18.195238095238096"></rect><rect shape-rendering="optimizeSpeed" fill="#000" x="227.14285714285714" y="154.76190476190476" width="18.195238095238096" height="18.195238095238096"></rect><rect shape-rendering="optimizeSpeed" fill="#000" x="281.42857142857144" y="154.76190476190476" width="18.195238095238096" height="18.195238095238096"></rect><rect shape-rendering="optimizeSpeed" fill="#000" x="317.6190476190476" y="154.76190476190476" width="18.195238095238096" height="18.195238095238096"></rect><rect shape-rendering="optimizeSpeed" fill="#000" x="335.7142857142857" y="154.76190476190476" width="18.195238095238096" height="18.195238095238096"></rect><rect shape-rendering="optimizeSpeed" fill="#000" x="353.8095238095238" y="154.76190476190476" width="18.195238095238096" height="18.195238095238096"></rect><rect shape-rendering="optimizeSpeed" fill="#000" x="371.9047619047619" y="154.76190476190476" width="18.195238095238096" height="18.195238095238096"></rect><rect shape-rendering="optimizeSpeed" fill="#000" x="10" y="172.85714285714286" width="18.195238095238096" height="18.195238095238096"></rect><rect shape-rendering="optimizeSpeed" fill="#000" x="28.095238095238095" y="172.85714285714286" width="18.195238095238096" height="18.195238095238096"></rect><rect shape-rendering="optimizeSpeed" fill="#000" x="64.28571428571428" y="172.85714285714286" width="18.195238095238096" height="18.195238095238096"></rect><rect shape-rendering="optimizeSpeed" fill="#000" x="136.66666666666666" y="172.85714285714286" width="18.195238095238096" height="18.195238095238096"></rect><rect shape-rendering="optimizeSpeed" fill="#000" x="154.76190476190476" y="172.85714285714286" width="18.195238095238096" height="18.195238095238096"></rect><rect shape-rendering="optimizeSpeed" fill="#000" x="209.04761904761904" y="172.85714285714286" width="18.195238095238096" height="18.195238095238096"></rect><rect shape-rendering="optimizeSpeed" fill="#000" x="299.5238095238095" y="172.85714285714286" width="18.195238095238096" height="18.195238095238096"></rect><rect shape-rendering="optimizeSpeed" fill="#000" x="353.8095238095238" y="172.85714285714286" width="18.195238095238096" height="18.195238095238096"></rect><rect shape-rendering="optimizeSpeed" fill="#000" x="10" y="190.95238095238096" width="18.195238095238096" height="18.195238095238096"></rect><rect shape-rendering="optimizeSpeed" fill="#000" x="82.38095238095238" y="190.95238095238096" width="18.195238095238096" height="18.195238095238096"></rect><rect shape-rendering="optimizeSpeed" fill="#000" x="100.47619047619048" y="190.95238095238096" width="18.195238095238096" height="18.195238095238096"></rect><rect shape-rendering="optimizeSpeed" fill="#000" x="118.57142857142857" y="190.95238095238096" width="18.195238095238096" height="18.195238095238096"></rect><rect shape-rendering="optimizeSpeed" fill="#000" x="136.66666666666666" y="190.95238095238096" width="18.195238095238096" height="18.195238095238096"></rect><rect shape-rendering="optimizeSpeed" fill="#000" x="190.95238095238096" y="190.95238095238096" width="18.195238095238096" height="18.195238095238096"></rect><rect shape-rendering="optimizeSpeed" fill="#000" x="299.5238095238095" y="190.95238095238096" width="18.195238095238096" height="18.195238095238096"></rect><rect shape-rendering="optimizeSpeed" fill="#000" x="317.6190476190476" y="190.95238095238096" width="18.195238095238096" height="18.195238095238096"></rect><rect shape-rendering="optimizeSpeed" fill="#000" x="353.8095238095238" y="190.95238095238096" width="18.195238095238096" height="18.195238095238096"></rect><rect shape-rendering="optimizeSpeed" fill="#000" x="10" y="209.04761904761904" width="18.195238095238096" height="18.195238095238096"></rect><rect shape-rendering="optimizeSpeed" fill="#000" x="28.095238095238095" y="209.04761904761904" width="18.195238095238096" height="18.195238095238096"></rect><rect shape-rendering="optimizeSpeed" fill="#000" x="46.19047619047619" y="209.04761904761904" width="18.195238095238096" height="18.195238095238096"></rect><rect shape-rendering="optimizeSpeed" fill="#000" x="82.38095238095238" y="209.04761904761904" width="18.195238095238096" height="18.195238095238096"></rect><rect shape-rendering="optimizeSpeed" fill="#000" x="154.76190476190476" y="209.04761904761904" width="18.195238095238096" height="18.195238095238096"></rect><rect shape-rendering="optimizeSpeed" fill="#000" x="172.85714285714286" y="209.04761904761904" width="18.195238095238096" height="18.195238095238096"></rect><rect shape-rendering="optimizeSpeed" fill="#000" x="209.04761904761904" y="209.04761904761904" width="18.195238095238096" height="18.195238095238096"></rect><rect shape-rendering="optimizeSpeed" fill="#000" x="227.14285714285714" y="209.04761904761904" width="18.195238095238096" height="18.195238095238096"></rect><rect shape-rendering="optimizeSpeed" fill="#000" x="281.42857142857144" y="209.04761904761904" width="18.195238095238096" height="18.195238095238096"></rect><rect shape-rendering="optimizeSpeed" fill="#000" x="353.8095238095238" y="209.04761904761904" width="18.195238095238096" height="18.195238095238096"></rect><rect shape-rendering="optimizeSpeed" fill="#000" x="371.9047619047619" y="209.04761904761904" width="18.195238095238096" height="18.195238095238096"></rect><rect shape-rendering="optimizeSpeed" fill="#000" x="64.28571428571428" y="227.14285714285714" width="18.195238095238096" height="18.195238095238096"></rect><rect shape-rendering="optimizeSpeed" fill="#000" x="82.38095238095238" y="227.14285714285714" width="18.195238095238096" height="18.195238095238096"></rect><rect shape-rendering="optimizeSpeed" fill="#000" x="100.47619047619048" y="227.14285714285714" width="18.195238095238096" height="18.195238095238096"></rect><rect shape-rendering="optimizeSpeed" fill="#000" x="118.57142857142857" y="227.14285714285714" width="18.195238095238096" height="18.195238095238096"></rect><rect shape-rendering="optimizeSpeed" fill="#000" x="136.66666666666666" y="227.14285714285714" width="18.195238095238096" height="18.195238095238096"></rect><rect shape-rendering="optimizeSpeed" fill="#000" x="172.85714285714286" y="227.14285714285714" width="18.195238095238096" height="18.195238095238096"></rect><rect shape-rendering="optimizeSpeed" fill="#000" x="227.14285714285714" y="227.14285714285714" width="18.195238095238096" height="18.195238095238096"></rect><rect shape-rendering="optimizeSpeed" fill="#000" x="245.23809523809524" y="227.14285714285714" width="18.195238095238096" height="18.195238095238096"></rect><rect shape-rendering="optimizeSpeed" fill="#000" x="353.8095238095238" y="227.14285714285714" width="18.195238095238096" height="18.195238095238096"></rect><rect shape-rendering="optimizeSpeed" fill="#000" x="371.9047619047619" y="227.14285714285714" width="18.195238095238096" height="18.195238095238096"></rect><rect shape-rendering="optimizeSpeed" fill="#000" x="154.76190476190476" y="245.23809523809524" width="18.195238095238096" height="18.195238095238096"></rect><rect shape-rendering="optimizeSpeed" fill="#000" x="172.85714285714286" y="245.23809523809524" width="18.195238095238096" height="18.195238095238096"></rect><rect shape-rendering="optimizeSpeed" fill="#000" x="209.04761904761904" y="245.23809523809524" width="18.195238095238096" height="18.195238095238096"></rect><rect shape-rendering="optimizeSpeed" fill="#000" x="281.42857142857144" y="245.23809523809524" width="18.195238095238096" height="18.195238095238096"></rect><rect shape-rendering="optimizeSpeed" fill="#000" x="299.5238095238095" y="245.23809523809524" width="18.195238095238096" height="18.195238095238096"></rect><rect shape-rendering="optimizeSpeed" fill="#000" x="317.6190476190476" y="245.23809523809524" width="18.195238095238096" height="18.195238095238096"></rect><rect shape-rendering="optimizeSpeed" fill="#000" x="10" y="263.3333333333333" width="18.195238095238096" height="18.195238095238096"></rect><rect shape-rendering="optimizeSpeed" fill="#000" x="28.095238095238095" y="263.3333333333333" width="18.195238095238096" height="18.195238095238096"></rect><rect shape-rendering="optimizeSpeed" fill="#000" x="46.19047619047619" y="263.3333333333333" width="18.195238095238096" height="18.195238095238096"></rect><rect shape-rendering="optimizeSpeed" fill="#000" x="64.28571428571428" y="263.3333333333333" width="18.195238095238096" height="18.195238095238096"></rect><rect shape-rendering="optimizeSpeed" fill="#000" x="82.38095238095238" y="263.3333333333333" width="18.195238095238096" height="18.195238095238096"></rect><rect shape-rendering="optimizeSpeed" fill="#000" x="100.47619047619048" y="263.3333333333333" width="18.195238095238096" height="18.195238095238096"></rect><rect shape-rendering="optimizeSpeed" fill="#000" x="118.57142857142857" y="263.3333333333333" width="18.195238095238096" height="18.195238095238096"></rect><rect shape-rendering="optimizeSpeed" fill="#000" x="172.85714285714286" y="263.3333333333333" width="18.195238095238096" height="18.195238095238096"></rect><rect shape-rendering="optimizeSpeed" fill="#000" x="190.95238095238096" y="263.3333333333333" width="18.195238095238096" height="18.195238095238096"></rect><rect shape-rendering="optimizeSpeed" fill="#000" x="263.3333333333333" y="263.3333333333333" width="18.195238095238096" height="18.195238095238096"></rect><rect shape-rendering="optimizeSpeed" fill="#000" x="299.5238095238095" y="263.3333333333333" width="18.195238095238096" height="18.195238095238096"></rect><rect shape-rendering="optimizeSpeed" fill="#000" x="335.7142857142857" y="263.3333333333333" width="18.195238095238096" height="18.195238095238096"></rect><rect shape-rendering="optimizeSpeed" fill="#000" x="353.8095238095238" y="263.3333333333333" width="18.195238095238096" height="18.195238095238096"></rect><rect shape-rendering="optimizeSpeed" fill="#000" x="10" y="281.42857142857144" width="18.195238095238096" height="18.195238095238096"></rect><rect shape-rendering="optimizeSpeed" fill="#000" x="118.57142857142857" y="281.42857142857144" width="18.195238095238096" height="18.195238095238096"></rect><rect shape-rendering="optimizeSpeed" fill="#000" x="154.76190476190476" y="281.42857142857144" width="18.195238095238096" height="18.195238095238096"></rect><rect shape-rendering="optimizeSpeed" fill="#000" x="190.95238095238096" y="281.42857142857144" width="18.195238095238096" height="18.195238095238096"></rect><rect shape-rendering="optimizeSpeed" fill="#000" x="227.14285714285714" y="281.42857142857144" width="18.195238095238096" height="18.195238095238096"></rect><rect shape-rendering="optimizeSpeed" fill="#000" x="245.23809523809524" y="281.42857142857144" width="18.195238095238096" height="18.195238095238096"></rect><rect shape-rendering="optimizeSpeed" fill="#000" x="299.5238095238095" y="281.42857142857144" width="18.195238095238096" height="18.195238095238096"></rect><rect shape-rendering="optimizeSpeed" fill="#000" x="353.8095238095238" y="281.42857142857144" width="18.195238095238096" height="18.195238095238096"></rect><rect shape-rendering="optimizeSpeed" fill="#000" x="10" y="299.5238095238095" width="18.195238095238096" height="18.195238095238096"></rect><rect shape-rendering="optimizeSpeed" fill="#000" x="46.19047619047619" y="299.5238095238095" width="18.195238095238096" height="18.195238095238096"></rect><rect shape-rendering="optimizeSpeed" fill="#000" x="64.28571428571428" y="299.5238095238095" width="18.195238095238096" height="18.195238095238096"></rect><rect shape-rendering="optimizeSpeed" fill="#000" x="82.38095238095238" y="299.5238095238095" width="18.195238095238096" height="18.195238095238096"></rect><rect shape-rendering="optimizeSpeed" fill="#000" x="118.57142857142857" y="299.5238095238095" width="18.195238095238096" height="18.195238095238096"></rect><rect shape-rendering="optimizeSpeed" fill="#000" x="154.76190476190476" y="299.5238095238095" width="18.195238095238096" height="18.195238095238096"></rect><rect shape-rendering="optimizeSpeed" fill="#000" x="190.95238095238096" y="299.5238095238095" width="18.195238095238096" height="18.195238095238096"></rect><rect shape-rendering="optimizeSpeed" fill="#000" x="209.04761904761904" y="299.5238095238095" width="18.195238095238096" height="18.195238095238096"></rect><rect shape-rendering="optimizeSpeed" fill="#000" x="245.23809523809524" y="299.5238095238095" width="18.195238095238096" height="18.195238095238096"></rect><rect shape-rendering="optimizeSpeed" fill="#000" x="281.42857142857144" y="299.5238095238095" width="18.195238095238096" height="18.195238095238096"></rect><rect shape-rendering="optimizeSpeed" fill="#000" x="317.6190476190476" y="299.5238095238095" width="18.195238095238096" height="18.195238095238096"></rect><rect shape-rendering="optimizeSpeed" fill="#000" x="353.8095238095238" y="299.5238095238095" width="18.195238095238096" height="18.195238095238096"></rect><rect shape-rendering="optimizeSpeed" fill="#000" x="371.9047619047619" y="299.5238095238095" width="18.195238095238096" height="18.195238095238096"></rect><rect shape-rendering="optimizeSpeed" fill="#000" x="10" y="317.6190476190476" width="18.195238095238096" height="18.195238095238096"></rect><rect shape-rendering="optimizeSpeed" fill="#000" x="46.19047619047619" y="317.6190476190476" width="18.195238095238096" height="18.195238095238096"></rect><rect shape-rendering="optimizeSpeed" fill="#000" x="64.28571428571428" y="317.6190476190476" width="18.195238095238096" height="18.195238095238096"></rect><rect shape-rendering="optimizeSpeed" fill="#000" x="82.38095238095238" y="317.6190476190476" width="18.195238095238096" height="18.195238095238096"></rect><rect shape-rendering="optimizeSpeed" fill="#000" x="118.57142857142857" y="317.6190476190476" width="18.195238095238096" height="18.195238095238096"></rect><rect shape-rendering="optimizeSpeed" fill="#000" x="245.23809523809524" y="317.6190476190476" width="18.195238095238096" height="18.195238095238096"></rect><rect shape-rendering="optimizeSpeed" fill="#000" x="263.3333333333333" y="317.6190476190476" width="18.195238095238096" height="18.195238095238096"></rect><rect shape-rendering="optimizeSpeed" fill="#000" x="281.42857142857144" y="317.6190476190476" width="18.195238095238096" height="18.195238095238096"></rect><rect shape-rendering="optimizeSpeed" fill="#000" x="299.5238095238095" y="317.6190476190476" width="18.195238095238096" height="18.195238095238096"></rect><rect shape-rendering="optimizeSpeed" fill="#000" x="335.7142857142857" y="317.6190476190476" width="18.195238095238096" height="18.195238095238096"></rect><rect shape-rendering="optimizeSpeed" fill="#000" x="371.9047619047619" y="317.6190476190476" width="18.195238095238096" height="18.195238095238096"></rect><rect shape-rendering="optimizeSpeed" fill="#000" x="10" y="335.7142857142857" width="18.195238095238096" height="18.195238095238096"></rect><rect shape-rendering="optimizeSpeed" fill="#000" x="46.19047619047619" y="335.7142857142857" width="18.195238095238096" height="18.195238095238096"></rect><rect shape-rendering="optimizeSpeed" fill="#000" x="64.28571428571428" y="335.7142857142857" width="18.195238095238096" height="18.195238095238096"></rect><rect shape-rendering="optimizeSpeed" fill="#000" x="82.38095238095238" y="335.7142857142857" width="18.195238095238096" height="18.195238095238096"></rect><rect shape-rendering="optimizeSpeed" fill="#000" x="118.57142857142857" y="335.7142857142857" width="18.195238095238096" height="18.195238095238096"></rect><rect shape-rendering="optimizeSpeed" fill="#000" x="172.85714285714286" y="335.7142857142857" width="18.195238095238096" height="18.195238095238096"></rect><rect shape-rendering="optimizeSpeed" fill="#000" x="209.04761904761904" y="335.7142857142857" width="18.195238095238096" height="18.195238095238096"></rect><rect shape-rendering="optimizeSpeed" fill="#000" x="245.23809523809524" y="335.7142857142857" width="18.195238095238096" height="18.195238095238096"></rect><rect shape-rendering="optimizeSpeed" fill="#000" x="299.5238095238095" y="335.7142857142857" width="18.195238095238096" height="18.195238095238096"></rect><rect shape-rendering="optimizeSpeed" fill="#000" x="317.6190476190476" y="335.7142857142857" width="18.195238095238096" height="18.195238095238096"></rect><rect shape-rendering="optimizeSpeed" fill="#000" x="335.7142857142857" y="335.7142857142857" width="18.195238095238096" height="18.195238095238096"></rect><rect shape-rendering="optimizeSpeed" fill="#000" x="10" y="353.8095238095238" width="18.195238095238096" height="18.195238095238096"></rect><rect shape-rendering="optimizeSpeed" fill="#000" x="118.57142857142857" y="353.8095238095238" width="18.195238095238096" height="18.195238095238096"></rect><rect shape-rendering="optimizeSpeed" fill="#000" x="154.76190476190476" y="353.8095238095238" width="18.195238095238096" height="18.195238095238096"></rect><rect shape-rendering="optimizeSpeed" fill="#000" x="190.95238095238096" y="353.8095238095238" width="18.195238095238096" height="18.195238095238096"></rect><rect shape-rendering="optimizeSpeed" fill="#000" x="209.04761904761904" y="353.8095238095238" width="18.195238095238096" height="18.195238095238096"></rect><rect shape-rendering="optimizeSpeed" fill="#000" x="245.23809523809524" y="353.8095238095238" width="18.195238095238096" height="18.195238095238096"></rect><rect shape-rendering="optimizeSpeed" fill="#000" x="281.42857142857144" y="353.8095238095238" width="18.195238095238096" height="18.195238095238096"></rect><rect shape-rendering="optimizeSpeed" fill="#000" x="299.5238095238095" y="353.8095238095238" width="18.195238095238096" height="18.195238095238096"></rect><rect shape-rendering="optimizeSpeed" fill="#000" x="10" y="371.9047619047619" width="18.195238095238096" height="18.195238095238096"></rect><rect shape-rendering="optimizeSpeed" fill="#000" x="28.095238095238095" y="371.9047619047619" width="18.195238095238096" height="18.195238095238096"></rect><rect shape-rendering="optimizeSpeed" fill="#000" x="46.19047619047619" y="371.9047619047619" width="18.195238095238096" height="18.195238095238096"></rect><rect shape-rendering="optimizeSpeed" fill="#000" x="64.28571428571428" y="371.9047619047619" width="18.195238095238096" height="18.195238095238096"></rect><rect shape-rendering="optimizeSpeed" fill="#000" x="82.38095238095238" y="371.9047619047619" width="18.195238095238096" height="18.195238095238096"></rect><rect shape-rendering="optimizeSpeed" fill="#000" x="100.47619047619048" y="371.9047619047619" width="18.195238095238096" height="18.195238095238096"></rect><rect shape-rendering="optimizeSpeed" fill="#000" x="118.57142857142857" y="371.9047619047619" width="18.195238095238096" height="18.195238095238096"></rect><rect shape-rendering="optimizeSpeed" fill="#000" x="154.76190476190476" y="371.9047619047619" width="18.195238095238096" height="18.195238095238096"></rect><rect shape-rendering="optimizeSpeed" fill="#000" x="172.85714285714286" y="371.9047619047619" width="18.195238095238096" height="18.195238095238096"></rect><rect shape-rendering="optimizeSpeed" fill="#000" x="190.95238095238096" y="371.9047619047619" width="18.195238095238096" height="18.195238095238096"></rect><rect shape-rendering="optimizeSpeed" fill="#000" x="209.04761904761904" y="371.9047619047619" width="18.195238095238096" height="18.195238095238096"></rect><rect shape-rendering="optimizeSpeed" fill="#000" x="227.14285714285714" y="371.9047619047619" width="18.195238095238096" height="18.195238095238096"></rect><rect shape-rendering="optimizeSpeed" fill="#000" x="281.42857142857144" y="371.9047619047619" width="18.195238095238096" height="18.195238095238096"></rect><rect shape-rendering="optimizeSpeed" fill="#000" x="317.6190476190476" y="371.9047619047619" width="18.195238095238096" height="18.195238095238096"></rect><rect shape-rendering="optimizeSpeed" fill="#000" x="371.9047619047619" y="371.9047619047619" width="18.195238095238096" height="18.195238095238096"></rect></svg></g></svg>